<svg xmlns="http://www.w3.org/2000/svg" xmlns:svg="http://www.w3.org/2000/svg" xmlns:xlink="http://www.w3.org/1999/xlink" id="Layer_1" width="1392.054" height="330" x="0" y="0" enable-background="new 0 0 1550 350.327" version="1.1" viewBox="0 0 1392.054 330" xml:space="preserve"><metadata id="metadata4452"/><defs id="defs4450"><marker id="TriangleInM" orient="auto" refX="0" refY="0" style="overflow:visible"><path id="path5222" d="m 5.77,0 -8.65,5 0,-10 8.65,5 z" style="fill:#000;fill-opacity:1;fill-rule:evenodd;stroke:#000;stroke-width:1pt;stroke-opacity:1" transform="scale(-0.4,-0.4)"/></marker><marker id="TriangleInS" orient="auto" refX="0" refY="0" style="overflow:visible"><path id="path5225" d="m 5.77,0 -8.65,5 0,-10 8.65,5 z" style="fill:#000;fill-opacity:1;fill-rule:evenodd;stroke:#000;stroke-width:1pt;stroke-opacity:1" transform="scale(-0.2,-0.2)"/></marker><marker id="TriangleOutM" orient="auto" refX="0" refY="0" style="overflow:visible"><path id="path5231" d="m 5.77,0 -8.65,5 0,-10 8.65,5 z" style="fill:#000;fill-opacity:1;fill-rule:evenodd;stroke:#000;stroke-width:1pt;stroke-opacity:1" transform="scale(0.4,0.4)"/></marker><defs id="defs4424"><path id="SVGID_1_" d="m 45.279,323.172 c -1.805,0 -3.639,-0.266 -5.454,-0.825 -9.764,-3.009 -15.241,-13.362 -12.232,-23.127 0.3,-0.973 7.482,-24.112 19.735,-48.8 18.32,-36.912 37.808,-57.562 59.578,-63.13 11.916,-3.048 30.087,-2.824 48.988,15.544 5.609,5.451 9.007,6.424 10.017,6.172 0.691,-0.169 7.036,-2.231 16.818,-22.182 7.51,-15.316 13.942,-34.8 19.617,-51.99 7.688,-23.291 12.354,-36.878 18.833,-45.302 10.496,-13.644 25.616,-19.7 41.481,-16.615 10.621,2.065 18.176,7.568 19.583,8.65 l -22.56,29.327 c 0,0 0.094,0.079 0.279,0.208 -5.644,-3.97 -7.847,-1.104 -9.457,0.989 -2.995,3.955 -8.792,21.517 -13.025,34.34 -13.995,42.394 -29.856,90.443 -62.76,98.509 -3.155,0.773 -6.229,1.123 -9.199,1.123 -14.795,0.002 -27.138,-8.654 -35.414,-16.697 -8.001,-7.776 -12.384,-6.654 -14.033,-6.232 -3.734,0.955 -17.339,6.932 -35.604,43.732 -10.934,22.03 -17.454,43.036 -17.519,43.246 -2.448,7.951 -9.767,13.06 -17.672,13.06 z"/></defs><clipPath id="SVGID_2_"><use id="use4428" width="100%" height="100%" x="0" y="0" overflow="visible" xlink:href="#SVGID_1_" style="overflow:visible"/></clipPath></defs><text id="text4442" x="594.144" y="229.567" style="fill:#1b8e0e;fill-opacity:1;stroke:none;stroke-width:7.50000143;stroke-miterlimit:4;stroke-dasharray:none;stroke-opacity:1"><tspan id="tspan4444" x="594.144" y="229.567" stroke-miterlimit="10" font-size="254.339" style="font-style:normal;font-variant:normal;font-weight:300;font-stretch:normal;font-size:225.00004578px;font-family:'Source Sans Pro';-inkscape-font-specification:'Source Sans Pro Light';letter-spacing:3.00000048px;fill:#000;fill-opacity:1;stroke:#000;stroke-width:7.50000143;stroke-linecap:round;stroke-miterlimit:4;stroke-dasharray:none;stroke-opacity:1">Measure</tspan></text><g id="g4180" transform="matrix(0.81159422,0,0,0.81159422,4.7101444,4.7101539)"><rect id="rect4192" width="350.844" height="345" x="25" y="25" ry="25" style="opacity:1;fill:#e3fdc7;fill-opacity:1;stroke:none;stroke-width:10.00000095;stroke-linecap:round;stroke-linejoin:round;stroke-miterlimit:10;stroke-dasharray:none;stroke-dashoffset:1.39999998;stroke-opacity:1"/><path id="path5067-6" d="m 112.71104,319.60097 c 13.88884,-25.47677 23.34266,-49.92767 62.87246,-52.06043 96.39635,-1.94604 100.91447,-80.78249 101.88931,-129.97865 20.62553,22.6595 13.60991,18.71325 47.68488,33.29228 l 22.5132,-9.55106 c -6.35209,-60.07806 -45.9916,-63.504938 -76.64654,-54.88786 -16.13561,3.24397 -20.71325,9.1216 -24.52587,23.00981 -18.82112,68.62488 -17.05227,85.74235 -106.9042,91.23106 -32.61443,4.93837 -60.087397,42.45931 -58.670777,92.78171 l 0,7.02984 z" style="fill:#000;fill-opacity:.21904764;fill-rule:evenodd;stroke:none;stroke-width:3.00000024;stroke-linecap:butt;stroke-linejoin:miter;stroke-miterlimit:4;stroke-dasharray:none;stroke-opacity:1"/><path id="path7496" d="m 325.51717,139.06909 5.09663,8.82762 1.95629,7.30099 0,-8.2831 7.48353,4.32062 -7.38188,-7.38189 -2.19942,-3.8095 z" style="fill:red;fill-rule:evenodd;stroke:red;stroke-width:1px;stroke-linecap:butt;stroke-linejoin:miter;stroke-opacity:1"/><path id="path5067" d="m 80.083628,322.46589 c 1.56176,-1.44749 5.430453,0.48197 6.839875,-1.02806 29.809207,-31.93709 27.631957,-76.57572 81.680147,-79.4918 96.39634,-1.94604 100.91446,-80.78247 101.8893,-129.97862 20.62552,22.65949 13.6099,18.71324 47.68487,33.29227 l 22.5132,-9.55106 c -6.35209,-60.078048 -45.9916,-63.504922 -76.64653,-54.887845 -16.13561,3.243965 -20.71325,9.121595 -24.52587,23.009805 -18.82112,68.62487 -17.05227,85.74233 -106.90419,91.23104 -32.61442,4.93837 -60.087395,42.4593 -58.670775,92.78169 l 0,34.11091 z" style="fill:#1b8e0e;fill-opacity:1;fill-rule:evenodd;stroke:#0f5008;stroke-width:3.00000024;stroke-linecap:butt;stroke-linejoin:miter;stroke-miterlimit:4;stroke-dasharray:none;stroke-opacity:1"/><path id="path7530" d="m 83.611745,236.85726 -4.58281,28.22047 21.466855,-21.94926 5.30642,-30.63247 z" style="fill:#5cc011;fill-opacity:1;fill-rule:evenodd;stroke:none;stroke-width:1px;stroke-linecap:butt;stroke-linejoin:miter;stroke-opacity:1"/><path id="path5080" d="m 75.000005,79.999979 0,240.000011 239.999995,0" style="fill:none;fill-rule:evenodd;stroke:#000;stroke-width:10.00000095;stroke-linecap:butt;stroke-linejoin:miter;stroke-miterlimit:4;stroke-dasharray:none;stroke-opacity:1;marker-start:url(#TriangleInM);marker-end:url(#TriangleOutM)"/><ellipse id="path7498" cx="295.607" cy="111.88" rx="5.607" ry="5.399" style="opacity:.66699997;fill:#000;fill-opacity:1;stroke:none;stroke-width:10;stroke-linecap:round;stroke-linejoin:round;stroke-miterlimit:4;stroke-dasharray:none;stroke-dashoffset:1.39999998;stroke-opacity:1"/><ellipse id="path7498-8" cx="318.179" cy="104.679" rx="5.607" ry="5.399" style="opacity:.66699997;fill:#000;fill-opacity:1;stroke:none;stroke-width:10;stroke-linecap:round;stroke-linejoin:round;stroke-miterlimit:4;stroke-dasharray:none;stroke-dashoffset:1.39999998;stroke-opacity:1"/><path id="path7530-6" d="m 132.61443,195.06162 -26.81222,17.43438 31.13279,0.38166 23.92318,-14.93789 z" style="fill:#5cc011;fill-opacity:1;fill-rule:evenodd;stroke:none;stroke-width:1px;stroke-linecap:butt;stroke-linejoin:miter;stroke-opacity:1"/><path id="path7530-9" d="m 186.38113,187.41883 -25.52295,10.52094 35.57228,4.27778 15.93039,-19.76591 z" style="fill:#5cc011;fill-opacity:1;fill-rule:evenodd;stroke:none;stroke-width:1px;stroke-linecap:butt;stroke-linejoin:miter;stroke-opacity:1"/><path id="path7530-2" d="m 222.97367,157.12558 -10.61282,25.32606 30.02947,-19.05485 -6.15062,-27.37626 z" style="fill:#5cc011;fill-opacity:1;fill-rule:evenodd;stroke:none;stroke-width:1px;stroke-linecap:butt;stroke-linejoin:miter;stroke-opacity:1"/><path id="path7530-4" d="m 236.8938,112.23447 -2.53616,23.78606 18.39687,-18.36762 -8.33796,-27.221378 z" style="fill:#5cc011;fill-opacity:1;fill-rule:evenodd;stroke:none;stroke-width:1px;stroke-linecap:butt;stroke-linejoin:miter;stroke-opacity:1"/><path id="path7496-9" d="m 332.78089,161.33809 5.09663,8.82762 1.95629,7.30099 0,-8.2831 7.48353,4.32062 -7.38188,-7.38189 -2.19942,-3.8095 z" style="fill:#77ae4b;fill-opacity:1;fill-rule:evenodd;stroke:#77ae4b;stroke-width:1px;stroke-linecap:butt;stroke-linejoin:miter;stroke-opacity:1"/></g><flowRoot id="flowRoot5543" transform="translate(303.77583,733.27972)" xml:space="preserve" style="font-style:normal;font-variant:normal;font-weight:400;font-stretch:normal;font-size:40px;line-height:125%;font-family:Arial;-inkscape-font-specification:'Arial, Normal';text-align:start;letter-spacing:0;word-spacing:0;writing-mode:lr-tb;text-anchor:start;fill:#1b8e0e;fill-opacity:1;stroke:#1b8e0e;stroke-width:6.00000095;stroke-linecap:butt;stroke-linejoin:miter;stroke-miterlimit:4;stroke-dasharray:none;stroke-opacity:1"><flowRegion id="flowRegion5545"><rect id="rect5547" width="717.813" height="405.217" x="54.029" y="-724.171" style="fill:#1b8e0e;fill-opacity:1;stroke:#1b8e0e;stroke-width:6.00000095;stroke-miterlimit:4;stroke-dasharray:none;stroke-opacity:1"/></flowRegion><flowPara id="flowPara5549" style="font-style:normal;font-variant:normal;font-weight:400;font-stretch:normal;font-size:225.00004578px;font-family:'Source Sans Pro';-inkscape-font-specification:'Source Sans Pro';fill:#1b8e0e;fill-opacity:1;stroke:#1b8e0e;stroke-width:6.00000095;stroke-miterlimit:4;stroke-dasharray:none;stroke-opacity:1">Py</flowPara></flowRoot></svg>